HIERARCHY
ROOT Hips
{
  OFFSET 51.363 84.4131 7.76468
  CHANNELS 6 Xposition Yposition Zposition Zrotation Xrotation Yrotation
  JOINT spine
  {
    OFFSET 0 5.95438 0.342407
    CHANNELS 3 Zrotation Xrotation Yrotation
    JOINT spine1
    {
      OFFSET 0 8.85602 0
      CHANNELS 3 Zrotation Xrotation Yrotation
      JOINT spine2
      {
        OFFSET 0 8.48567 0
        CHANNELS 3 Zrotation Xrotation Yrotation
        JOINT Neck
        {
          OFFSET 0 21.7863 1.0387
          CHANNELS 3 Zrotation Xrotation Yrotation
          JOINT Head
          {
            OFFSET 0 6.5822 0
            CHANNELS 3 Zrotation Xrotation Yrotation
            End Site
            {
              OFFSET 0 15.9326 -5.25436
            }
          }
        }
        JOINT RightShoulder
        {
          OFFSET -3.57307 9.16386 -0.497525
          CHANNELS 3 Zrotation Xrotation Yrotation
          JOINT RightArm
          {
            OFFSET 0 12.0192 0
            CHANNELS 3 Zrotation Xrotation Yrotation
            JOINT RightArmRoll
            {
              OFFSET 0 6.06755 0
              CHANNELS 3 Zrotation Xrotation Yrotation
              JOINT RightForeArm
              {
                OFFSET 0 17.6726 0
                CHANNELS 3 Zrotation Xrotation Yrotation
                JOINT RightForeArmRoll
                {
                  OFFSET 0 6.80872 0
                  CHANNELS 3 Zrotation Xrotation Yrotation
                  JOINT RightHand
                  {
                    OFFSET 0 13.6636 0
                    CHANNELS 3 Zrotation Xrotation Yrotation
                    End Site
                    {
                      OFFSET 0 0 0
                    }
                  }
                }
              }
            }
          }
        }
        JOINT LeftShoulder
        {
          OFFSET 3.57307 9.16386 -0.497525
          CHANNELS 3 Zrotation Xrotation Yrotation
          JOINT LeftArm
          {
            OFFSET 0 12.0192 0
            CHANNELS 3 Zrotation Xrotation Yrotation
            JOINT LeftArmRoll
            {
              OFFSET 0 6.06755 0
              CHANNELS 3 Zrotation Xrotation Yrotation
              JOINT LeftForeArm
              {
                OFFSET 0 17.6726 0
                CHANNELS 3 Zrotation Xrotation Yrotation
                JOINT LeftForeArmRoll
                {
                  OFFSET 0 6.80872 0
                  CHANNELS 3 Zrotation Xrotation Yrotation
                  JOINT LeftHand
                  {
                    OFFSET 0 13.6636 0
                    CHANNELS 3 Zrotation Xrotation Yrotation
                    End Site
                    {
                      OFFSET 0 0 0
                    }
                  }
                }
              }
            }
          }
        }
      }
    }
  }
  JOINT RightUpLeg
  {
    OFFSET -5.27774 -0.967797 -0.811858
    CHANNELS 3 Zrotation Xrotation Yrotation
    JOINT RightUpLegRoll
    {
      OFFSET 0 16.0214 0
      CHANNELS 3 Zrotation Xrotation Yrotation
      JOINT RightLeg
      {
        OFFSET 0 -19.8401 0
        CHANNELS 3 Zrotation Xrotation Yrotation
        JOINT RightLegRoll
        {
          OFFSET 0 19.905 0
          CHANNELS 3 Zrotation Xrotation Yrotation
          JOINT RightFoot
          {
            OFFSET 0 16.5675 0
            CHANNELS 3 Zrotation Xrotation Yrotation
            JOINT RightToeBase
            {
              OFFSET 0 13.8496 0
              CHANNELS 3 Zrotation Xrotation Yrotation
              End Site
              {
                OFFSET 0.00587034 6.70727 -0.773117
              }
            }
          }
        }
      }
    }
  }
  JOINT LeftUpLeg
  {
    OFFSET 5.27774 -0.967797 -0.811858
    CHANNELS 3 Zrotation Xrotation Yrotation
    JOINT LeftUpLegRoll
    {
      OFFSET 0 16.0215 0
      CHANNELS 3 Zrotation Xrotation Yrotation
      JOINT LeftLeg
      {
        OFFSET 0 19.84 0
        CHANNELS 3 Zrotation Xrotation Yrotation
        JOINT LeftLegRoll
        {
          OFFSET 0 20.089 0
          CHANNELS 3 Zrotation Xrotation Yrotation
          JOINT LeftFoot
          {
            OFFSET 0 16.3835 0
            CHANNELS 3 Zrotation Xrotation Yrotation
            JOINT LeftToeBase
            {
              OFFSET 0 13.8496 0
              CHANNELS 3 Zrotation Xrotation Yrotation
              End Site
              {
                OFFSET -0.0263083 6.70728 -0.773116
              }
            }
          }
        }
      }
    }
  }
}
MOTION
Frames: 12
Frame Time: 0.00208333
52.0659 84.3553 6.11457 -1.17136 -9.99427 -3.92688 0.48587 -0.131813 0.0918471 0.958457 3.75604 0.119187 0.958408 5.40097 0.106918 -8.18871 14.6648 0.326784 10.7696 3.79241 -2.04054 70.6554 3.59487 0.43076 108.025 15.8464 -8.32612 -2.44609e-007 -1.87801e-006 3.10764e-006 -3.63774 -0.026523 -1.99258 2.68261e-005 3.23164e-006 -3.01159 8.03008 -4.95139 0.697628 -65.4676 -2.05119 1.84558 -116.698 17.521 16.045 -1.0562e-005 8.99022e-007 8.57981e-007 3.63816 -0.0149839 1.99167 -3.79537e-006 -1.12877e-007 3.01162 -8.03008 -4.95138 -0.697615 178.869 -4.3464 4.008 -180 7.01507e-015 178.76 177.066 8.43656 179.908 1.62963e-007 2.19174e-006 0.0971858 -18.4535 67.6261 19.2554 8.13649 25.2327 -3.48773 -177.1 -2.70053 -1.7294 4.54188e-006 -4.6773e-006 -1.19423 -2.54739 -12.6087 0.0753498 3.87818e-006 -2.10819e-006 -0.215909 20.3355 69.9507 -21.3113 -8.13649 25.2327 3.48774 
52.0648 84.3539 6.11061 -1.17601 -9.9913 -3.93028 0.486636 -0.131906 0.0918496 0.96036 3.75558 0.11907 0.960315 5.40052 0.106746 -8.20208 14.6618 0.32912 10.7795 3.79732 -2.04273 70.6434 3.5942 0.432228 108.014 15.8249 -8.30896 -2.44609e-007 -1.87801e-006 3.10764e-006 -3.63774 -0.026523 -1.99258 2.68261e-005 3.23164e-006 -3.01159 8.03008 -4.95139 0.697628 -65.4739 -2.046 1.84333 -116.67 17.4966 16.009 -1.0562e-005 8.99022e-007 8.57981e-007 3.63816 -0.0149839 1.99167 -3.79537e-006 -1.12877e-007 3.01162 -8.03008 -4.95138 -0.697615 178.883 -4.35015 3.99277 -180 7.01507e-015 178.76 177.082 8.42627 179.907 1.62963e-007 2.19174e-006 0.0972179 -18.4591 67.633 19.2614 8.13649 25.2327 -3.48773 -177.094 -2.71073 -1.73224 4.54188e-006 -4.6773e-006 -1.19423 -2.54879 -12.5848 0.0755318 3.87818e-006 -2.10819e-006 -0.215908 20.3255 69.9409 -21.3007 -8.13649 25.2327 3.48774 
52.0666 84.352 6.11495 -1.18077 -9.98837 -3.93368 0.487445 -0.132043 0.0918527 0.962373 3.75508 0.118947 0.96233 5.40002 0.106565 -8.21625 14.6592 0.331666 10.79 3.80195 -2.04498 70.6311 3.59395 0.433962 108.004 15.8031 -8.29181 -2.44609e-007 -1.87801e-006 3.10764e-006 -3.63774 -0.026523 -1.99258 2.68261e-005 3.23164e-006 -3.01159 8.03008 -4.95139 0.697628 -65.4812 -2.04049 1.84101 -116.641 17.4725 15.9722 -1.0562e-005 8.99022e-007 8.57981e-007 3.63816 -0.0149839 1.99167 -3.79537e-006 -1.12877e-007 3.01162 -8.03008 -4.95138 -0.697615 178.897 -4.35397 3.97694 -180 7.01507e-015 178.76 177.1 8.41594 179.906 1.62963e-007 2.19174e-006 0.0972657 -18.4651 67.6403 19.2678 8.13649 25.2327 -3.48773 -177.089 -2.72158 -1.73513 4.54188e-006 -4.6773e-006 -1.19423 -2.55021 -12.5595 0.0757523 3.87818e-006 -2.10819e-006 -0.215908 20.315 69.9305 -21.2895 -8.13649 25.2327 3.48774 
52.0593 84.3548 6.12514 -1.18561 -9.98545 -3.93709 0.488285 -0.132213 0.0918561 0.964461 3.75455 0.118819 0.964421 5.39949 0.106377 -8.23099 14.657 0.33436 10.801 3.80637 -2.04727 70.6185 3.59402 0.43588 107.993 15.7811 -8.27469 -2.44609e-007 -1.87801e-006 3.10764e-006 -3.63774 -0.026523 -1.99258 2.68261e-005 3.23164e-006 -3.01159 8.03008 -4.95139 0.697628 -65.4893 -2.03476 1.83864 -116.611 17.4486 15.9348 -1.0562e-005 8.99022e-007 8.57981e-007 3.63816 -0.0149839 1.99167 -3.79537e-006 -1.12877e-007 3.01162 -8.03008 -4.95138 -0.697615 178.911 -4.35784 3.96068 -180 7.01507e-015 178.76 177.118 8.40552 179.905 1.62963e-007 2.19174e-006 0.0973244 -18.4712 67.6479 19.2745 8.13649 25.2327 -3.48773 -177.084 -2.73289 -1.73805 4.54188e-006 -4.6773e-006 -1.19423 -2.55164 -12.5332 0.0759997 3.87818e-006 -2.10819e-006 -0.215908 20.3041 69.9198 -21.2779 -8.13649 25.2327 3.48774 
52.0607 84.3506 6.1256 -1.19049 -9.98255 -3.9405 0.489142 -0.132401 0.0918596 0.966593 3.754 0.118689 0.966556 5.39894 0.106185 -8.24605 14.6551 0.337137 10.8123 3.81068 -2.04958 70.6057 3.59425 0.437904 107.983 15.759 -8.25758 -2.44609e-007 -1.87801e-006 3.10764e-006 -3.63774 -0.026523 -1.99258 2.68261e-005 3.23164e-006 -3.01159 8.03008 -4.95139 0.697628 -65.4978 -2.02891 1.83624 -116.58 17.4248 15.8971 -1.0562e-005 8.99022e-007 8.57981e-007 3.63816 -0.0149839 1.99167 -3.79537e-006 -1.12877e-007 3.01162 -8.03008 -4.95138 -0.697615 178.926 -4.36175 3.94417 -180 7.01507e-015 178.76 177.137 8.39508 179.904 1.62963e-007 2.19174e-006 0.0973894 -18.4775 67.6556 19.2813 8.13649 25.2327 -3.48773 -177.078 -2.74446 -1.74099 4.54188e-006 -4.6773e-006 -1.19423 -2.55308 -12.5064 0.0762626 3.87818e-006 -2.10819e-006 -0.215908 20.293 69.9088 -21.2661 -8.13649 25.2327 3.48774 
52.0687 84.352 6.12364 -1.19539 -9.97966 -3.94392 0.490004 -0.132593 0.0918632 0.968736 3.75345 0.118558 0.968702 5.39839 0.105993 -8.26119 14.6532 0.339936 10.8236 3.81497 -2.05189 70.593 3.59453 0.439954 107.973 15.7369 -8.24047 -2.44609e-007 -1.87801e-006 3.10764e-006 -3.63774 -0.026523 -1.99258 2.68261e-005 3.23164e-006 -3.01159 8.03008 -4.95139 0.697628 -65.5065 -2.02302 1.83384 -116.55 17.4011 15.8594 -1.0562e-005 8.99022e-007 8.57981e-007 3.63816 -0.0149839 1.99167 -3.79537e-006 -1.12877e-007 3.01162 -8.03008 -4.95138 -0.697615 178.941 -4.36566 3.92761 -180 7.01507e-015 178.76 177.155 8.38465 179.903 1.62963e-007 2.19174e-006 0.097456 -18.4838 67.6634 19.2881 8.13649 25.2327 -3.48773 -177.073 -2.7561 -1.74393 4.54188e-006 -4.6773e-006 -1.19423 -2.55453 -12.4794 0.0765292 3.87818e-006 -2.10819e-006 -0.215907 20.2819 69.8978 -21.2542 -8.13649 25.2327 3.48774 
52.0638 84.3531 6.1296 -1.20026 -9.97676 -3.94733 0.490857 -0.132776 0.0918668 0.970857 3.75291 0.118428 0.970827 5.39784 0.105802 -8.27617 14.6511 0.342692 10.8348 3.81931 -2.05419 70.5803 3.59472 0.441952 107.962 15.7148 -8.22336 -2.44609e-007 -1.87801e-006 3.10764e-006 -3.63774 -0.026523 -1.99258 2.68261e-005 3.23164e-006 -3.01159 8.03008 -4.95139 0.697628 -65.5149 -2.01719 1.83144 -116.52 17.3772 15.8218 -1.0562e-005 8.99022e-007 8.57981e-007 3.63816 -0.0149839 1.99167 -3.79537e-006 -1.12877e-007 3.01162 -8.03008 -4.95138 -0.697615 178.956 -4.36956 3.91116 -180 7.01507e-015 178.76 177.174 8.37421 179.902 1.62963e-007 2.19174e-006 0.0975194 -18.4901 67.6711 19.2949 8.13649 25.2327 -3.48773 -177.067 -2.7676 -1.74687 4.54188e-006 -4.6773e-006 -1.19423 -2.55597 -12.4527 0.0767881 3.87818e-006 -2.10819e-006 -0.215907 20.2708 69.8869 -21.2425 -8.13649 25.2327 3.48774 
52.0874 84.3387 6.10081 -1.20508 -9.97384 -3.95074 0.491688 -0.132936 0.0918701 0.972924 3.75239 0.118301 0.972896 5.39732 0.105616 -8.29075 14.6489 0.345343 10.8457 3.82379 -2.05646 70.5678 3.5947 0.443817 107.952 15.6928 -8.20625 -2.44609e-007 -1.87801e-006 3.10764e-006 -3.63774 -0.026523 -1.99258 2.68261e-005 3.23164e-006 -3.01159 8.03008 -4.95139 0.697628 -65.5228 -2.01152 1.82909 -116.49 17.3532 15.7847 -1.0562e-005 8.99022e-007 8.57981e-007 3.63816 -0.0149839 1.99167 -3.79537e-006 -1.12877e-007 3.01162 -8.03008 -4.95138 -0.697615 178.97 -4.37342 3.89502 -180 7.01507e-015 178.76 177.192 8.36382 179.901 1.62963e-007 2.19174e-006 0.097575 -18.4962 67.6786 19.3015 8.13649 25.2327 -3.48773 -177.062 -2.77878 -1.74978 4.54188e-006 -4.6773e-006 -1.19423 -2.5574 -12.4267 0.0770278 3.87818e-006 -2.10819e-006 -0.215907 20.2601 69.8763 -21.231 -8.13649 25.2327 3.48774 
52.0857 84.3423 6.10435 -1.2098 -9.9709 -3.95414 0.492485 -0.133061 0.0918729 0.974903 3.7519 0.11818 0.974879 5.39683 0.105437 -8.30468 14.6462 0.347826 10.856 3.8285 -2.0587 70.5556 3.59433 0.445471 107.941 15.6711 -8.18914 -2.44609e-007 -1.87801e-006 3.10764e-006 -3.63774 -0.026523 -1.99258 2.68261e-005 3.23164e-006 -3.01159 8.03008 -4.95139 0.697628 -65.5299 -2.00611 1.82679 -116.462 17.3289 15.7482 -1.0562e-005 8.99022e-007 8.57981e-007 3.63816 -0.0149839 1.99167 -3.79537e-006 -1.12877e-007 3.01162 -8.03008 -4.95138 -0.697615 178.984 -4.37722 3.87937 -180 7.01507e-015 178.76 177.209 8.3535 179.9 1.62963e-007 2.19174e-006 0.0976181 -18.502 67.6857 19.3078 8.13649 25.2327 -3.48773 -177.057 -2.78944 -1.75266 4.54188e-006 -4.6773e-006 -1.19423 -2.55881 -12.4018 0.0772365 3.87818e-006 -2.10819e-006 -0.215906 20.2499 69.8661 -21.2201 -8.13649 25.2327 3.48774 
52.0639 84.3627 6.13261 -1.2144 -9.96792 -3.95752 0.493233 -0.133135 0.0918753 0.976763 3.75146 0.118066 0.976742 5.39639 0.10527 -8.31772 14.6429 0.350077 10.8657 3.83352 -2.06088 70.5437 3.59348 0.446834 107.931 15.6498 -8.17201 -2.44609e-007 -1.87801e-006 3.10764e-006 -3.63774 -0.026523 -1.99258 2.68261e-005 3.23164e-006 -3.01159 8.03008 -4.95139 0.697628 -65.5357 -2.00104 1.82457 -116.434 17.3042 15.7126 -1.0562e-005 8.99022e-007 8.57981e-007 3.63816 -0.0149839 1.99167 -3.79537e-006 -1.12877e-007 3.01162 -8.03008 -4.95138 -0.697615 178.998 -4.38093 3.86439 -180 7.01507e-015 178.76 177.226 8.34325 179.899 1.62963e-007 2.19174e-006 0.0976439 -18.5075 67.6925 19.3137 8.13649 25.2327 -3.48773 -177.052 -2.79938 -1.75548 4.54188e-006 -4.6773e-006 -1.19423 -2.56021 -12.3785 0.0774029 3.87818e-006 -2.10819e-006 -0.215906 20.2402 69.8565 -21.2098 -8.13649 25.2327 3.48774 
52.0698 84.3803 6.12844 -1.21884 -9.96489 -3.9609 0.493921 -0.133147 0.091877 0.978471 3.75108 0.11796 0.978452 5.39601 0.105115 -8.32964 14.6388 0.352033 10.8745 3.83895 -2.06298 70.5324 3.59202 0.447826 107.92 15.6288 -8.15486 -2.44609e-007 -1.87801e-006 3.10764e-006 -3.63774 -0.026523 -1.99258 2.68261e-005 3.23164e-006 -3.01159 8.03008 -4.95139 0.697628 -65.54 -1.99642 1.82245 -116.408 17.279 15.6781 -1.0562e-005 8.99022e-007 8.57981e-007 3.63816 -0.0149839 1.99167 -3.79537e-006 -1.12877e-007 3.01162 -8.03008 -4.95138 -0.697615 179.01 -4.38454 3.85025 -180 7.01507e-015 178.76 177.241 8.33313 179.898 1.62963e-007 2.19174e-006 0.0976478 -18.5126 67.6987 19.3192 8.13649 25.2327 -3.48773 -177.047 -2.8084 -1.75825 4.54188e-006 -4.6773e-006 -1.19423 -2.56157 -12.3571 0.0775153 3.87818e-006 -2.10819e-006 -0.215907 20.2313 69.8476 -21.2004 -8.13649 25.2327 3.48774 
52.0553 84.3699 6.1429 -1.22308 -9.96181 -3.96426 0.494534 -0.133081 0.0918778 0.979993 3.75077 0.117866 0.979977 5.39571 0.104977 -8.34019 14.6339 0.353631 10.8821 3.84486 -2.065 70.5216 3.58982 0.448369 107.909 15.6084 -8.1377 -2.44609e-007 -1.87801e-006 3.10764e-006 -3.63774 -0.026523 -1.99258 2.68261e-005 3.23164e-006 -3.01159 8.03008 -4.95139 0.697628 -65.5424 -1.99234 1.82044 -116.383 17.2532 15.6451 -1.0562e-005 8.99022e-007 8.57981e-007 3.63816 -0.0149839 1.99167 -3.79537e-006 -1.12877e-007 3.01162 -8.03008 -4.95138 -0.697615 179.022 -4.38802 3.83716 -180 7.01507e-015 178.76 177.255 8.32314 179.897 1.62963e-007 2.19174e-006 0.0976251 -18.5171 67.7042 19.3241 8.13649 25.2327 -3.48773 -177.042 -2.81631 -1.76093 4.54188e-006 -4.6773e-006 -1.19423 -2.56291 -12.3381 0.0775622 3.87818e-006 -2.10819e-006 -0.215907 20.2234 69.8397 -21.1919 -8.13649 25.2327 3.48774 
